# Wavefront OBJ file
# Regions:
#     0    patch0
#
# points    : 252
# triangles : 500
#
v 3069 -14.9538 324.627
v 3069 7.3e-14 325
v 3061 7.3e-14 325
v 3061 -14.9538 324.627
v 3069 -29.8704 323.509
v 3061 -29.8704 323.509
v 3069 -44.7127 321.649
v 3061 -44.7127 321.649
v 3069 -59.4438 319.052
v 3061 -59.4438 319.052
v 3069 -74.0272 315.723
v 3061 -74.0272 315.723
v 3069 -88.4266 311.672
v 3061 -88.4266 311.672
v 3061 -102.606 306.908
v 3069 -102.606 306.908
v 3069 -116.53 301.443
v 3061 -116.53 301.443
v 3069 -130.165 295.291
v 3061 -130.165 295.291
v 3069 -143.476 288.466
v 3061 -143.476 288.466
v 3069 -156.431 280.987
v 3061 -156.431 280.987
v 3069 -168.996 272.872
v 3061 -168.996 272.872
v 3069 -181.141 264.14
v 3061 -181.141 264.14
v 3069 -192.836 254.813
v 3061 -192.836 254.813
v 3069 -204.052 244.916
v 3061 -204.052 244.916
v 3069 -214.76 234.471
v 3061 -214.76 234.471
v 3069 -224.934 223.506
v 3061 -224.934 223.506
v 3069 -234.549 212.047
v 3061 -234.549 212.047
v 3069 -243.581 200.123
v 3061 -243.581 200.123
v 3061 -252.008 187.764
v 3069 -252.008 187.764
v 3061 -259.808 175
v 3069 -259.808 175
v 3069 -266.962 161.863
v 3061 -266.962 161.863
v 3069 -273.452 148.386
v 3061 -273.452 148.386
v 3069 -279.262 134.602
v 3061 -279.262 134.602
v 3069 -284.378 120.546
v 3061 -284.378 120.546
v 3069 -288.787 106.252
v 3061 -288.787 106.252
v 3069 -292.478 91.7563
v 3061 -292.478 91.7563
v 3069 -295.442 77.0945
v 3061 -295.442 77.0945
v 3069 -297.672 62.3031
v 3061 -297.672 62.3031
v 3069 -299.161 47.419
v 3061 -299.161 47.419
v 3069 -299.907 32.4792
v 3061 -299.907 32.4792
v 3069 -299.907 17.5208
v 3061 -299.907 17.5208
v 3061 -299.161 2.58097
v 3069 -299.161 2.58097
v 3069 -297.672 -12.3031
v 3061 -297.672 -12.3031
v 3069 -295.442 -27.0945
v 3061 -295.442 -27.0945
v 3069 -292.478 -41.7563
v 3061 -292.478 -41.7563
v 3069 -288.787 -56.2521
v 3061 -288.787 -56.2521
v 3069 -284.378 -70.546
v 3061 -284.378 -70.546
v 3069 -279.262 -84.6023
v 3061 -279.262 -84.6023
v 3069 -273.452 -98.3861
v 3061 -273.452 -98.3861
v 3069 -266.962 -111.863
v 3061 -266.962 -111.863
v 3061 -259.808 -125
v 3069 -259.808 -125
v 3069 -252.008 -137.764
v 3061 -252.008 -137.764
v 3069 -243.581 -150.123
v 3061 -243.581 -150.123
v 3069 -234.549 -162.047
v 3061 -234.549 -162.047
v 3069 -224.934 -173.506
v 3061 -224.934 -173.506
v 3069 -214.76 -184.471
v 3061 -214.76 -184.471
v 3069 -204.052 -194.916
v 3061 -204.052 -194.916
v 3069 -192.836 -204.813
v 3061 -192.836 -204.813
v 3069 -181.141 -214.14
v 3061 -181.141 -214.14
v 3069 -168.996 -222.872
v 3061 -168.996 -222.872
v 3069 -156.431 -230.987
v 3061 -156.431 -230.987
v 3069 -143.476 -238.466
v 3061 -143.476 -238.466
v 3069 -130.165 -245.291
v 3061 -130.165 -245.291
v 3069 -116.53 -251.443
v 3061 -116.53 -251.443
v 3069 -102.606 -256.908
v 3061 -102.606 -256.908
v 3069 -88.4266 -261.672
v 3061 -88.4266 -261.672
v 3069 -74.0272 -265.723
v 3061 -74.0272 -265.723
v 3069 -59.4438 -269.052
v 3061 -59.4438 -269.052
v 3069 -44.7127 -271.649
v 3061 -44.7127 -271.649
v 3069 -29.8704 -273.509
v 3061 -29.8704 -273.509
v 3069 -14.9538 -274.627
v 3061 -14.9538 -274.627
v 3069 1.02907e-12 -275
v 3061 1.02907e-12 -275
v 3069 14.9538 -274.627
v 3061 14.9538 -274.627
v 3069 29.8704 -273.509
v 3061 29.8704 -273.509
v 3069 44.7127 -271.649
v 3061 44.7127 -271.649
v 3069 59.4438 -269.052
v 3061 59.4438 -269.052
v 3069 74.0272 -265.723
v 3061 74.0272 -265.723
v 3069 88.4266 -261.672
v 3061 88.4266 -261.672
v 3069 102.606 -256.908
v 3061 102.606 -256.908
v 3069 116.53 -251.443
v 3061 116.53 -251.443
v 3069 130.165 -245.291
v 3061 130.165 -245.291
v 3069 143.476 -238.466
v 3061 143.476 -238.466
v 3061 156.431 -230.987
v 3069 156.431 -230.987
v 3069 168.996 -222.872
v 3061 168.996 -222.872
v 3069 181.141 -214.14
v 3061 181.141 -214.14
v 3069 192.836 -204.813
v 3061 192.836 -204.813
v 3069 204.052 -194.916
v 3061 204.052 -194.916
v 3069 214.76 -184.471
v 3061 214.76 -184.471
v 3069 224.934 -173.506
v 3061 224.934 -173.506
v 3069 234.549 -162.047
v 3061 234.549 -162.047
v 3069 243.581 -150.123
v 3061 243.581 -150.123
v 3069 252.008 -137.764
v 3061 252.008 -137.764
v 3069 259.808 -125
v 3061 259.808 -125
v 3069 266.962 -111.863
v 3061 266.962 -111.863
v 3069 273.452 -98.3861
v 3061 273.452 -98.3861
v 3069 279.262 -84.6023
v 3061 279.262 -84.6023
v 3069 284.378 -70.546
v 3061 284.378 -70.546
v 3069 288.787 -56.2521
v 3061 288.787 -56.2521
v 3069 292.478 -41.7563
v 3061 292.478 -41.7563
v 3069 295.442 -27.0945
v 3061 295.442 -27.0945
v 3069 297.672 -12.3031
v 3061 297.672 -12.3031
v 3069 299.161 2.58097
v 3061 299.161 2.58097
v 3069 299.907 17.5208
v 3061 299.907 17.5208
v 3069 299.907 32.4792
v 3061 299.907 32.4792
v 3069 299.161 47.419
v 3061 299.161 47.419
v 3061 297.672 62.3031
v 3069 297.672 62.3031
v 3069 295.442 77.0945
v 3061 295.442 77.0945
v 3069 292.478 91.7563
v 3061 292.478 91.7563
v 3069 288.787 106.252
v 3061 288.787 106.252
v 3069 284.378 120.546
v 3061 284.378 120.546
v 3069 279.262 134.602
v 3061 279.262 134.602
v 3069 273.452 148.386
v 3061 273.452 148.386
v 3069 266.962 161.863
v 3061 266.962 161.863
v 3069 259.808 175
v 3061 259.808 175
v 3069 252.008 187.764
v 3061 252.008 187.764
v 3069 243.581 200.123
v 3061 243.581 200.123
v 3069 234.549 212.047
v 3061 234.549 212.047
v 3069 224.934 223.506
v 3061 224.934 223.506
v 3069 214.76 234.471
v 3061 214.76 234.471
v 3069 204.052 244.916
v 3061 204.052 244.916
v 3069 192.836 254.813
v 3061 192.836 254.813
v 3069 181.141 264.14
v 3061 181.141 264.14
v 3069 168.996 272.872
v 3061 168.996 272.872
v 3061 156.431 280.987
v 3069 156.431 280.987
v 3069 143.476 288.466
v 3061 143.476 288.466
v 3069 130.165 295.291
v 3061 130.165 295.291
v 3069 116.53 301.443
v 3061 116.53 301.443
v 3069 102.606 306.908
v 3061 102.606 306.908
v 3069 88.4266 311.672
v 3061 88.4266 311.672
v 3069 74.0272 315.723
v 3061 74.0272 315.723
v 3069 59.4438 319.052
v 3061 59.4438 319.052
v 3069 44.7127 321.649
v 3061 44.7127 321.649
v 3069 29.8704 323.509
v 3061 29.8704 323.509
v 3069 14.9538 324.627
v 3061 14.9538 324.627
g patch0
f 1 2 3
f 1 3 4
f 5 4 6
f 5 1 4
f 7 6 8
f 7 5 6
f 9 8 10
f 9 7 8
f 11 10 12
f 11 9 10
f 13 12 14
f 13 14 15
f 13 11 12
f 16 13 15
f 17 15 18
f 17 16 15
f 19 18 20
f 19 17 18
f 21 20 22
f 21 19 20
f 23 21 22
f 23 22 24
f 25 23 24
f 25 24 26
f 27 25 26
f 27 26 28
f 29 27 28
f 29 28 30
f 31 29 30
f 31 30 32
f 33 31 32
f 33 32 34
f 35 33 34
f 35 34 36
f 37 35 36
f 37 36 38
f 39 37 38
f 39 38 40
f 39 40 41
f 42 39 41
f 42 41 43
f 44 42 43
f 45 44 43
f 45 43 46
f 47 46 48
f 47 45 46
f 49 48 50
f 49 47 48
f 51 50 52
f 51 49 50
f 53 52 54
f 53 51 52
f 55 54 56
f 55 53 54
f 57 56 58
f 57 55 56
f 59 58 60
f 59 57 58
f 61 60 62
f 61 59 60
f 63 62 64
f 63 61 62
f 65 64 66
f 65 66 67
f 65 63 64
f 68 65 67
f 69 67 70
f 69 68 67
f 71 70 72
f 71 69 70
f 73 72 74
f 73 71 72
f 75 73 74
f 75 74 76
f 77 75 76
f 77 76 78
f 79 77 78
f 79 78 80
f 81 79 80
f 81 80 82
f 83 81 82
f 83 82 84
f 83 84 85
f 86 83 85
f 87 86 85
f 87 85 88
f 89 87 88
f 89 88 90
f 91 89 90
f 91 90 92
f 93 91 92
f 93 92 94
f 95 93 94
f 95 94 96
f 97 95 96
f 97 96 98
f 99 97 98
f 99 98 100
f 101 99 100
f 101 100 102
f 103 101 102
f 103 102 104
f 105 103 104
f 105 104 106
f 107 105 106
f 107 106 108
f 109 107 108
f 109 108 110
f 111 109 110
f 111 110 112
f 113 111 112
f 113 112 114
f 115 113 114
f 115 114 116
f 117 116 118
f 117 115 116
f 119 118 120
f 119 117 118
f 121 120 122
f 121 119 120
f 123 122 124
f 123 121 122
f 125 123 124
f 125 124 126
f 127 125 126
f 127 126 128
f 129 127 128
f 129 128 130
f 131 129 130
f 131 130 132
f 133 131 132
f 133 132 134
f 135 133 134
f 135 134 136
f 137 135 136
f 137 136 138
f 139 137 138
f 139 138 140
f 141 139 140
f 141 140 142
f 143 141 142
f 143 142 144
f 145 143 144
f 145 144 146
f 147 145 146
f 147 146 148
f 147 148 149
f 150 147 149
f 151 149 152
f 151 150 149
f 153 152 154
f 153 151 152
f 155 154 156
f 155 153 154
f 157 156 158
f 157 155 156
f 159 158 160
f 159 157 158
f 161 160 162
f 161 159 160
f 163 162 164
f 163 161 162
f 165 164 166
f 165 163 164
f 167 166 168
f 167 165 166
f 169 168 170
f 169 167 168
f 171 170 172
f 171 169 170
f 173 172 174
f 173 171 172
f 175 174 176
f 175 173 174
f 177 175 176
f 177 176 178
f 179 177 178
f 179 178 180
f 181 179 180
f 181 180 182
f 183 181 182
f 183 182 184
f 185 184 186
f 185 183 184
f 187 186 188
f 187 185 186
f 189 188 190
f 189 187 188
f 191 190 192
f 191 189 190
f 193 192 194
f 193 194 195
f 193 191 192
f 196 193 195
f 197 195 198
f 197 196 195
f 199 198 200
f 199 197 198
f 201 200 202
f 201 199 200
f 203 202 204
f 203 201 202
f 205 204 206
f 205 203 204
f 207 206 208
f 207 205 206
f 209 208 210
f 209 207 208
f 211 210 212
f 211 209 210
f 213 212 214
f 213 211 212
f 215 214 216
f 215 213 214
f 217 216 218
f 217 215 216
f 219 218 220
f 219 217 218
f 221 220 222
f 221 219 220
f 223 222 224
f 223 221 222
f 225 223 224
f 225 224 226
f 227 225 226
f 227 226 228
f 229 227 228
f 229 228 230
f 229 230 231
f 232 229 231
f 233 232 231
f 233 231 234
f 235 233 234
f 235 234 236
f 237 235 236
f 237 236 238
f 239 237 238
f 239 238 240
f 241 239 240
f 241 240 242
f 243 241 242
f 243 242 244
f 245 243 244
f 245 244 246
f 247 245 246
f 247 246 248
f 249 247 248
f 249 248 250
f 251 250 252
f 251 249 250
f 2 252 3
f 2 251 252
f 153 155 157
f 165 161 163
f 169 165 167
f 171 161 165
f 171 165 169
f 145 153 157
f 145 147 150
f 145 150 151
f 145 151 153
f 145 157 159
f 173 161 171
f 177 161 173
f 177 173 175
f 139 145 159
f 139 141 143
f 139 143 145
f 179 161 177
f 181 161 179
f 181 159 161
f 135 137 139
f 133 135 139
f 185 181 183
f 131 133 139
f 189 185 187
f 127 139 159
f 127 129 131
f 127 159 181
f 127 131 139
f 127 181 185
f 196 189 191
f 196 191 193
f 121 123 125
f 121 125 127
f 119 121 127
f 199 196 197
f 117 127 185
f 117 119 127
f 201 189 196
f 201 196 199
f 201 185 189
f 111 113 115
f 111 115 117
f 109 111 117
f 209 201 203
f 209 203 205
f 209 205 207
f 213 209 211
f 103 109 117
f 103 105 107
f 103 107 109
f 101 103 117
f 217 213 215
f 217 209 213
f 99 101 117
f 219 201 209
f 219 209 217
f 97 99 117
f 221 185 201
f 221 201 219
f 89 91 93
f 89 93 95
f 89 95 97
f 229 221 223
f 229 223 225
f 229 225 227
f 87 89 97
f 86 87 97
f 233 229 232
f 237 233 235
f 237 221 229
f 237 229 233
f 79 81 83
f 77 83 86
f 77 97 117
f 77 86 97
f 77 79 83
f 77 117 185
f 243 239 241
f 69 71 73
f 249 243 245
f 249 245 247
f 251 243 249
f 251 237 239
f 251 239 243
f 65 68 69
f 65 73 75
f 65 69 73
f 1 251 2
f 1 221 237
f 1 237 251
f 59 61 63
f 59 63 65
f 59 75 77
f 59 65 75
f 7 1 5
f 55 57 59
f 11 7 9
f 11 1 7
f 53 59 77
f 53 55 59
f 13 1 11
f 49 51 53
f 47 53 77
f 47 49 53
f 47 185 221
f 47 77 185
f 19 13 16
f 19 16 17
f 19 1 13
f 44 45 47
f 23 19 21
f 23 1 19
f 42 44 47
f 27 23 25
f 35 37 39
f 35 39 42
f 35 47 221
f 35 42 47
f 31 27 29
f 33 221 1
f 33 1 23
f 33 23 27
f 33 27 31
f 33 35 221
f 156 154 158
f 162 166 164
f 166 170 168
f 162 172 166
f 166 172 170
f 154 146 158
f 148 146 149
f 149 146 152
f 152 146 154
f 158 146 160
f 162 174 172
f 162 178 174
f 174 178 176
f 146 140 160
f 142 140 144
f 144 140 146
f 162 180 178
f 162 182 180
f 160 182 162
f 138 136 140
f 136 134 140
f 182 186 184
f 134 132 140
f 186 190 188
f 140 128 160
f 130 128 132
f 160 128 182
f 132 128 140
f 182 128 186
f 190 195 192
f 192 195 194
f 124 122 126
f 126 122 128
f 122 120 128
f 195 200 198
f 128 118 186
f 120 118 128
f 190 202 195
f 195 202 200
f 186 202 190
f 114 112 116
f 116 112 118
f 112 110 118
f 202 210 204
f 204 210 206
f 206 210 208
f 210 214 212
f 110 104 118
f 106 104 108
f 108 104 110
f 104 102 118
f 214 218 216
f 210 218 214
f 102 100 118
f 202 220 210
f 210 220 218
f 100 98 118
f 186 222 202
f 202 222 220
f 92 90 94
f 94 90 96
f 96 90 98
f 222 230 224
f 224 230 226
f 226 230 228
f 90 88 98
f 88 85 98
f 230 234 231
f 234 238 236
f 222 238 230
f 230 238 234
f 82 80 84
f 84 78 85
f 98 78 118
f 85 78 98
f 80 78 84
f 118 78 186
f 240 244 242
f 72 70 74
f 244 250 246
f 246 250 248
f 244 252 250
f 238 252 240
f 240 252 244
f 67 66 70
f 74 66 76
f 70 66 74
f 252 4 3
f 222 4 238
f 238 4 252
f 62 60 64
f 64 60 66
f 76 60 78
f 66 60 76
f 4 8 6
f 58 56 60
f 8 12 10
f 4 12 8
f 60 54 78
f 56 54 60
f 4 14 12
f 52 50 54
f 54 48 78
f 50 48 54
f 186 48 222
f 78 48 186
f 14 20 15
f 15 20 18
f 4 20 14
f 46 43 48
f 20 24 22
f 4 24 20
f 43 41 48
f 24 28 26
f 38 36 40
f 40 36 41
f 48 36 222
f 41 36 48
f 28 32 30
f 222 34 4
f 4 34 24
f 24 34 28
f 28 34 32
f 36 34 222
