# Wavefront OBJ file
# Regions:
#     0    patch0
#
# points    : 252
# triangles : 500
#
v 979.528 -931.059 251.161
v 980 -950 251.161
v 980 -950 245.161
v 979.528 -931.059 245.161
v 978.112 -912.164 251.161
v 978.112 -912.164 245.161
v 975.756 -893.364 245.161
v 975.756 -893.364 251.161
v 972.466 -874.704 251.161
v 972.466 -874.704 245.161
v 968.249 -856.232 245.161
v 968.249 -856.232 251.161
v 963.118 -837.993 245.161
v 963.118 -837.993 251.161
v 957.083 -820.032 251.161
v 957.083 -820.032 245.161
v 950.161 -802.395 251.161
v 950.161 -802.395 245.161
v 942.368 -785.124 245.161
v 942.368 -785.124 251.161
v 933.724 -768.263 251.161
v 933.724 -768.263 245.161
v 924.251 -751.855 251.161
v 924.251 -751.855 245.161
v 913.971 -735.938 251.161
v 913.971 -735.938 245.161
v 902.91 -720.554 251.161
v 902.91 -720.554 245.161
v 891.097 -705.741 251.161
v 891.097 -705.741 245.161
v 878.56 -691.534 251.161
v 878.56 -691.534 245.161
v 865.33 -677.971 251.161
v 865.33 -677.971 245.161
v 851.441 -665.083 251.161
v 851.441 -665.083 245.161
v 836.926 -652.904 251.161
v 836.926 -652.904 245.161
v 821.823 -641.464 251.161
v 821.823 -641.464 245.161
v 806.168 -630.79 251.161
v 806.168 -630.79 245.161
v 790 -620.91 245.161
v 790 -620.91 251.161
v 773.36 -611.849 251.161
v 773.36 -611.849 245.161
v 756.289 -603.628 245.161
v 756.289 -603.628 251.161
v 738.83 -596.268 251.161
v 738.83 -596.268 245.161
v 721.025 -589.788 245.161
v 721.025 -589.788 251.161
v 702.919 -584.203 251.161
v 702.919 -584.203 245.161
v 684.558 -579.527 251.161
v 684.558 -579.527 245.161
v 665.986 -575.773 245.161
v 665.986 -575.773 251.161
v 647.251 -572.949 245.161
v 647.251 -572.949 251.161
v 628.397 -571.063 251.161
v 628.397 -571.063 245.161
v 609.474 -570.118 245.161
v 609.474 -570.118 251.161
v 590.526 -570.118 251.161
v 590.526 -570.118 245.161
v 571.603 -571.063 245.161
v 571.603 -571.063 251.161
v 552.749 -572.949 251.161
v 552.749 -572.949 245.161
v 534.014 -575.773 245.161
v 534.014 -575.773 251.161
v 515.442 -579.527 251.161
v 515.442 -579.527 245.161
v 497.081 -584.203 251.161
v 497.081 -584.203 245.161
v 478.975 -589.788 251.161
v 478.975 -589.788 245.161
v 461.17 -596.268 251.161
v 461.17 -596.268 245.161
v 443.711 -603.628 251.161
v 443.711 -603.628 245.161
v 426.64 -611.849 245.161
v 426.64 -611.849 251.161
v 410 -620.91 251.161
v 410 -620.91 245.161
v 393.832 -630.79 251.161
v 393.832 -630.79 245.161
v 378.177 -641.464 251.161
v 378.177 -641.464 245.161
v 363.074 -652.904 251.161
v 363.074 -652.904 245.161
v 348.559 -665.083 251.161
v 348.559 -665.083 245.161
v 334.67 -677.971 251.161
v 334.67 -677.971 245.161
v 321.44 -691.534 251.161
v 321.44 -691.534 245.161
v 308.903 -705.741 251.161
v 308.903 -705.741 245.161
v 297.09 -720.554 251.161
v 297.09 -720.554 245.161
v 286.029 -735.938 251.161
v 286.029 -735.938 245.161
v 275.749 -751.855 251.161
v 275.749 -751.855 245.161
v 266.276 -768.263 251.161
v 266.276 -768.263 245.161
v 257.632 -785.124 251.161
v 257.632 -785.124 245.161
v 249.839 -802.395 251.161
v 249.839 -802.395 245.161
v 242.917 -820.032 251.161
v 242.917 -820.032 245.161
v 236.882 -837.993 251.161
v 236.882 -837.993 245.161
v 231.751 -856.232 251.161
v 231.751 -856.232 245.161
v 227.534 -874.704 251.161
v 227.534 -874.704 245.161
v 224.244 -893.364 251.161
v 224.244 -893.364 245.161
v 221.888 -912.164 251.161
v 221.888 -912.164 245.161
v 220.472 -931.059 251.161
v 220.472 -931.059 245.161
v 220 -950 251.161
v 220 -950 245.161
v 220.472 -968.941 251.161
v 220.472 -968.941 245.161
v 221.888 -987.836 251.161
v 221.888 -987.836 245.161
v 224.244 -1006.64 251.161
v 224.244 -1006.64 245.161
v 227.534 -1025.3 251.161
v 227.534 -1025.3 245.161
v 231.751 -1043.77 251.161
v 231.751 -1043.77 245.161
v 236.882 -1062.01 251.161
v 236.882 -1062.01 245.161
v 242.917 -1079.97 251.161
v 242.917 -1079.97 245.161
v 249.839 -1097.61 251.161
v 249.839 -1097.61 245.161
v 257.632 -1114.88 251.161
v 257.632 -1114.88 245.161
v 266.276 -1131.74 251.161
v 266.276 -1131.74 245.161
v 275.749 -1148.15 251.161
v 275.749 -1148.15 245.161
v 286.029 -1164.06 251.161
v 286.029 -1164.06 245.161
v 297.09 -1179.45 251.161
v 297.09 -1179.45 245.161
v 308.903 -1194.26 251.161
v 308.903 -1194.26 245.161
v 321.44 -1208.47 251.161
v 321.44 -1208.47 245.161
v 334.67 -1222.03 251.161
v 334.67 -1222.03 245.161
v 348.559 -1234.92 251.161
v 348.559 -1234.92 245.161
v 363.074 -1247.1 251.161
v 363.074 -1247.1 245.161
v 378.177 -1258.54 251.161
v 378.177 -1258.54 245.161
v 393.832 -1269.21 251.161
v 393.832 -1269.21 245.161
v 410 -1279.09 251.161
v 410 -1279.09 245.161
v 426.64 -1288.15 251.161
v 426.64 -1288.15 245.161
v 443.711 -1296.37 251.161
v 443.711 -1296.37 245.161
v 461.17 -1303.73 251.161
v 461.17 -1303.73 245.161
v 478.975 -1310.21 251.161
v 478.975 -1310.21 245.161
v 497.081 -1315.8 251.161
v 497.081 -1315.8 245.161
v 515.442 -1320.47 251.161
v 515.442 -1320.47 245.161
v 534.014 -1324.23 251.161
v 534.014 -1324.23 245.161
v 552.749 -1327.05 251.161
v 552.749 -1327.05 245.161
v 571.603 -1328.94 251.161
v 571.603 -1328.94 245.161
v 590.526 -1329.88 245.161
v 590.526 -1329.88 251.161
v 609.474 -1329.88 251.161
v 609.474 -1329.88 245.161
v 628.397 -1328.94 251.161
v 628.397 -1328.94 245.161
v 647.251 -1327.05 251.161
v 647.251 -1327.05 245.161
v 665.986 -1324.23 251.161
v 665.986 -1324.23 245.161
v 684.558 -1320.47 251.161
v 684.558 -1320.47 245.161
v 702.919 -1315.8 245.161
v 702.919 -1315.8 251.161
v 721.025 -1310.21 251.161
v 721.025 -1310.21 245.161
v 738.83 -1303.73 251.161
v 738.83 -1303.73 245.161
v 756.289 -1296.37 251.161
v 756.289 -1296.37 245.161
v 773.36 -1288.15 245.161
v 773.36 -1288.15 251.161
v 790 -1279.09 251.161
v 790 -1279.09 245.161
v 806.168 -1269.21 251.161
v 806.168 -1269.21 245.161
v 821.823 -1258.54 251.161
v 821.823 -1258.54 245.161
v 836.926 -1247.1 245.161
v 836.926 -1247.1 251.161
v 851.441 -1234.92 251.161
v 851.441 -1234.92 245.161
v 865.33 -1222.03 245.161
v 865.33 -1222.03 251.161
v 878.56 -1208.47 251.161
v 878.56 -1208.47 245.161
v 891.097 -1194.26 251.161
v 891.097 -1194.26 245.161
v 902.91 -1179.45 251.161
v 902.91 -1179.45 245.161
v 913.971 -1164.06 251.161
v 913.971 -1164.06 245.161
v 924.251 -1148.15 251.161
v 924.251 -1148.15 245.161
v 933.724 -1131.74 251.161
v 933.724 -1131.74 245.161
v 942.368 -1114.88 251.161
v 942.368 -1114.88 245.161
v 950.161 -1097.61 251.161
v 950.161 -1097.61 245.161
v 957.083 -1079.97 251.161
v 957.083 -1079.97 245.161
v 963.118 -1062.01 251.161
v 963.118 -1062.01 245.161
v 968.249 -1043.77 251.161
v 968.249 -1043.77 245.161
v 972.466 -1025.3 251.161
v 972.466 -1025.3 245.161
v 975.756 -1006.64 251.161
v 975.756 -1006.64 245.161
v 978.112 -987.836 251.161
v 978.112 -987.836 245.161
v 979.528 -968.941 251.161
v 979.528 -968.941 245.161
g patch0
f 1 2 3
f 1 3 4
f 5 4 6
f 5 6 7
f 5 1 4
f 8 5 7
f 9 7 10
f 9 10 11
f 9 8 7
f 12 11 13
f 12 9 11
f 14 12 13
f 15 13 16
f 15 14 13
f 17 16 18
f 17 18 19
f 17 15 16
f 20 17 19
f 21 19 22
f 21 20 19
f 23 21 22
f 23 22 24
f 25 23 24
f 25 24 26
f 27 25 26
f 27 26 28
f 29 27 28
f 29 28 30
f 31 29 30
f 31 30 32
f 33 31 32
f 33 32 34
f 35 33 34
f 35 34 36
f 37 35 36
f 37 36 38
f 39 37 38
f 39 38 40
f 41 39 40
f 41 40 42
f 41 42 43
f 44 41 43
f 45 44 43
f 45 43 46
f 45 46 47
f 48 45 47
f 49 47 50
f 49 50 51
f 49 48 47
f 52 49 51
f 53 51 54
f 53 52 51
f 55 54 56
f 55 56 57
f 55 53 54
f 58 57 59
f 58 55 57
f 60 58 59
f 61 59 62
f 61 62 63
f 61 60 59
f 64 61 63
f 65 63 66
f 65 66 67
f 65 64 63
f 68 65 67
f 69 67 70
f 69 70 71
f 69 68 67
f 72 69 71
f 73 72 71
f 73 71 74
f 75 73 74
f 75 74 76
f 77 75 76
f 77 76 78
f 79 77 78
f 79 78 80
f 81 79 80
f 81 80 82
f 81 82 83
f 84 81 83
f 85 84 83
f 85 83 86
f 87 85 86
f 87 86 88
f 89 87 88
f 89 88 90
f 91 89 90
f 91 90 92
f 93 91 92
f 93 92 94
f 95 93 94
f 95 94 96
f 97 95 96
f 97 96 98
f 99 97 98
f 99 98 100
f 101 99 100
f 101 100 102
f 103 101 102
f 103 102 104
f 105 103 104
f 105 104 106
f 107 105 106
f 107 106 108
f 109 107 108
f 109 108 110
f 111 109 110
f 111 110 112
f 113 111 112
f 113 112 114
f 115 113 114
f 115 114 116
f 117 116 118
f 117 115 116
f 119 118 120
f 119 117 118
f 121 120 122
f 121 119 120
f 123 122 124
f 123 121 122
f 125 123 124
f 125 124 126
f 127 125 126
f 127 126 128
f 129 127 128
f 129 128 130
f 131 129 130
f 131 130 132
f 133 131 132
f 133 132 134
f 135 133 134
f 135 134 136
f 137 135 136
f 137 136 138
f 139 137 138
f 139 138 140
f 141 139 140
f 141 140 142
f 143 141 142
f 143 142 144
f 145 143 144
f 145 144 146
f 147 145 146
f 147 146 148
f 149 147 148
f 149 148 150
f 151 150 152
f 151 149 150
f 153 152 154
f 153 151 152
f 155 154 156
f 155 153 154
f 157 156 158
f 157 155 156
f 159 158 160
f 159 157 158
f 161 160 162
f 161 159 160
f 163 162 164
f 163 161 162
f 165 164 166
f 165 163 164
f 167 166 168
f 167 165 166
f 169 168 170
f 169 167 168
f 171 170 172
f 171 169 170
f 173 172 174
f 173 171 172
f 175 174 176
f 175 173 174
f 177 175 176
f 177 176 178
f 179 177 178
f 179 178 180
f 181 179 180
f 181 180 182
f 183 181 182
f 183 182 184
f 185 184 186
f 185 183 184
f 187 186 188
f 187 188 189
f 187 185 186
f 190 187 189
f 191 189 192
f 191 190 189
f 193 192 194
f 193 191 192
f 195 194 196
f 195 193 194
f 197 196 198
f 197 195 196
f 199 198 200
f 199 200 201
f 199 197 198
f 202 199 201
f 203 201 204
f 203 202 201
f 205 204 206
f 205 203 204
f 207 206 208
f 207 208 209
f 207 205 206
f 210 207 209
f 211 209 212
f 211 210 209
f 213 212 214
f 213 211 212
f 215 214 216
f 215 216 217
f 215 213 214
f 218 215 217
f 219 217 220
f 219 220 221
f 219 218 217
f 222 219 221
f 223 221 224
f 223 222 221
f 225 223 224
f 225 224 226
f 227 225 226
f 227 226 228
f 229 227 228
f 229 228 230
f 231 229 230
f 231 230 232
f 233 231 232
f 233 232 234
f 235 233 234
f 235 234 236
f 237 235 236
f 237 236 238
f 239 237 238
f 239 238 240
f 241 239 240
f 241 240 242
f 243 241 242
f 243 242 244
f 245 243 244
f 245 244 246
f 247 245 246
f 247 246 248
f 249 248 250
f 249 247 248
f 251 249 250
f 251 250 252
f 2 252 3
f 2 251 252
f 155 157 159
f 163 159 161
f 149 151 153
f 169 159 163
f 169 163 165
f 169 165 167
f 143 145 147
f 143 147 149
f 175 169 171
f 175 171 173
f 177 169 175
f 139 143 149
f 139 141 143
f 137 155 159
f 137 159 169
f 137 139 149
f 137 149 153
f 137 153 155
f 183 179 181
f 133 137 169
f 133 169 177
f 133 135 137
f 131 133 177
f 190 179 183
f 190 177 179
f 190 183 185
f 190 185 187
f 123 125 127
f 123 127 129
f 195 177 190
f 195 190 191
f 195 191 193
f 119 121 123
f 119 123 129
f 117 119 129
f 203 195 197
f 203 177 195
f 203 197 199
f 203 199 202
f 113 115 117
f 113 129 131
f 113 117 129
f 109 111 113
f 210 205 207
f 107 113 131
f 107 109 113
f 213 203 205
f 213 210 211
f 213 205 210
f 103 105 107
f 218 213 215
f 218 203 213
f 99 107 131
f 99 103 107
f 99 101 103
f 99 131 177
f 97 99 177
f 222 218 219
f 93 95 97
f 225 222 223
f 91 93 97
f 227 218 222
f 227 222 225
f 229 218 227
f 85 87 89
f 85 89 91
f 81 84 85
f 237 177 203
f 237 229 231
f 237 231 233
f 237 233 235
f 237 97 177
f 237 203 218
f 237 218 229
f 77 79 81
f 243 237 239
f 243 239 241
f 243 91 97
f 243 85 91
f 243 97 237
f 73 75 77
f 73 81 85
f 73 77 81
f 249 245 247
f 68 69 72
f 68 72 73
f 68 73 85
f 65 68 85
f 65 243 245
f 65 85 243
f 2 249 251
f 1 249 2
f 5 249 1
f 60 61 64
f 60 64 65
f 9 5 8
f 9 245 249
f 9 249 5
f 53 55 58
f 53 58 60
f 14 9 12
f 20 14 15
f 20 15 17
f 45 48 49
f 45 49 52
f 23 65 245
f 23 20 21
f 23 60 65
f 23 245 9
f 23 14 20
f 23 9 14
f 41 44 45
f 39 53 60
f 39 52 53
f 39 45 52
f 39 60 23
f 39 41 45
f 29 25 27
f 31 25 29
f 33 23 25
f 33 35 37
f 33 37 39
f 33 39 23
f 33 25 31
f 158 156 160
f 160 164 162
f 152 150 154
f 160 170 164
f 164 170 166
f 166 170 168
f 146 144 148
f 148 144 150
f 170 176 172
f 172 176 174
f 170 178 176
f 144 140 150
f 142 140 144
f 156 138 160
f 160 138 170
f 140 138 150
f 150 138 154
f 154 138 156
f 180 184 182
f 138 134 170
f 170 134 178
f 136 134 138
f 134 132 178
f 180 189 184
f 178 189 180
f 184 189 186
f 186 189 188
f 126 124 128
f 128 124 130
f 178 196 189
f 189 196 192
f 192 196 194
f 122 120 124
f 124 120 130
f 120 118 130
f 196 204 198
f 178 204 196
f 198 204 200
f 200 204 201
f 116 114 118
f 130 114 132
f 118 114 130
f 112 110 114
f 206 209 208
f 114 108 132
f 110 108 114
f 204 214 206
f 209 214 212
f 206 214 209
f 106 104 108
f 214 217 216
f 204 217 214
f 108 100 132
f 104 100 108
f 102 100 104
f 132 100 178
f 100 98 178
f 217 221 220
f 96 94 98
f 221 226 224
f 94 92 98
f 217 228 221
f 221 228 226
f 217 230 228
f 88 86 90
f 90 86 92
f 83 82 86
f 178 238 204
f 230 238 232
f 232 238 234
f 234 238 236
f 98 238 178
f 204 238 217
f 217 238 230
f 80 78 82
f 238 244 240
f 240 244 242
f 92 244 98
f 86 244 92
f 98 244 238
f 76 74 78
f 82 74 86
f 78 74 82
f 246 250 248
f 70 67 71
f 71 67 74
f 74 67 86
f 67 66 86
f 244 66 246
f 86 66 244
f 250 3 252
f 250 4 3
f 250 6 4
f 62 59 63
f 63 59 66
f 6 10 7
f 246 10 250
f 250 10 6
f 56 54 57
f 57 54 59
f 10 13 11
f 13 19 16
f 16 19 18
f 47 46 50
f 50 46 51
f 66 24 246
f 19 24 22
f 59 24 66
f 246 24 10
f 13 24 19
f 10 24 13
f 43 42 46
f 54 40 59
f 51 40 54
f 46 40 51
f 59 40 24
f 42 40 46
f 26 30 28
f 26 32 30
f 24 34 26
f 36 34 38
f 38 34 40
f 40 34 24
f 26 34 32
